<svg width="14" height="15" viewBox="0 0 14 15" fill="none" xmlns="http://www.w3.org/2000/svg">
<path opacity="0.4" fill-rule="evenodd" clip-rule="evenodd" d="M13 8.52264H7.99998V13.5198C7.99998 14.0714 7.5523 14.519 7.00005 14.519C6.4478 14.519 6.00003 14.0714 6.00003 13.5198V8.52264H1.00007C0.447746 8.52264 -3.3021e-05 8.0753 -3.3021e-05 7.52342C-3.3021e-05 6.97159 0.447746 6.52412 1.00007 6.52412H6.00003V1.52708C6.00003 0.9752 6.4478 0.527774 7.00005 0.527774C7.5523 0.527774 7.99998 0.9752 7.99998 1.52708V6.52412H13C13.5523 6.52412 14 6.97159 14 7.52342C14 8.0753 13.5523 8.52264 13 8.52264Z" fill="white"/>
</svg>
