<svg width="14" height="20" viewBox="0 0 14 20" fill="none" xmlns="http://www.w3.org/2000/svg">
<path opacity="0.4" fill-rule="evenodd" clip-rule="evenodd" d="M5.52282 20.0002C5.18385 20.0002 4.90906 19.7204 4.90906 19.3753C4.90906 19.0301 5.18385 18.7504 5.52282 18.7504H6.1364V17.4722C3.10671 17.1938 0.541646 14.8744 -1.75238e-05 11.8752H1.22732C1.78591 14.3793 4.12233 16.2501 6.75006 16.2501C9.37772 16.2501 11.7141 14.3793 12.2727 11.8752H13.5C12.9583 14.8744 10.3932 17.1938 7.36364 17.4722V18.7504H7.97731C8.31618 18.7504 8.59098 19.0301 8.59098 19.3753C8.59098 19.7204 8.31618 20.0002 7.97731 20.0002H5.52282ZM6.75006 15.0003C4.37768 15.0003 2.45456 13.0415 2.45456 10.6253V4.37542C2.45456 1.95914 4.37768 0.000187635 6.75006 0.000187635C9.12227 0.000187635 11.0455 1.95914 11.0455 4.37542V10.6253C11.0455 13.0415 9.12227 15.0003 6.75006 15.0003ZM9.81822 4.37542C9.81822 2.6495 8.44452 1.25022 6.75006 1.25022C5.05551 1.25022 3.68182 2.6495 3.68182 4.37542V10.6253C3.68182 12.3512 5.05551 13.7503 6.75006 13.7503C8.44452 13.7503 9.81822 12.3512 9.81822 10.6253V4.37542Z" fill="black"/>
</svg>
